<svg xmlns="http://www.w3.org/2000/svg" viewBox="0 0 777 754" width="32" height="32">
  <g fill="none" xmlns="http://www.w3.org/2000/svg">
    <path d="M325.6 637.8c6.8-11.1 13.4-22.3 20-33.6 4.1-7 8-14.1 11.9-21.3 1.9-3.4 1.5-3.6-1.8-4.5-13.3-3.8-13.3-3.8-20.2-16.8-9.4 15.7-18.4 30.9-27.7 46-2.7 4.4-2.8 4.4 1.8 8.3 13.8 11.7 13.8 11.7 16 21.9z" fill="#326DE6"/>
    <path d="M398.2 609.2c-2.3-4.5-4.6-9.2-7-13.7-5.4-10.5-10.9-21-16.2-31.6-1.7-3.3-1.7-3.3-4.6-.9-8.3 6.8-16.7 13.5-25.2 20.1-3.3 2.6-3.5 2.6-2.2-1.8 4.5-15.3 8.9-30.6 13.3-45.9 1.1-3.9.6-4.6-3.5-4.6-6.5.1-13 .1-19.6 0-3.6-.1-4.3.7-3.4 4.2 5.4 19.2 10.9 38.3 16.5 57.4.8 2.7.9 5.5 1.4 8.2-7.8 6.3-15.5 12.7-23.3 18.9-1.6 1.3-1.9 2.4-1.2 4.3 5.2 13.9 10.2 27.9 15.3 41.9 1.3 3.7 2.7 4.1 6.1 2.5 17.5-8.3 35-16.8 52.4-25.3 3.8-1.8 4.3-3.3 2.6-7.1-4.2-9.4-8.4-18.8-12.5-28.3-.7-1.4-.8-2.9-1.2-4.4 1-.2 1.4-.4 1.8-.4 6.7 0 13.4.1 20.2 0 4.3-.1 4.9 1.2 3.7 5.1-4.1 13.1-8.1 26.1-12 39.2-1.1 3.7-.5 5 3.7 5 13.5.1 26.9.1 40.4 0 4.1 0 4.9-1 3.9-4.8-4-15.8-8.1-31.6-12.3-47.4-.6-2.2-1.3-4.2-2.1-6.4 4.4-3.5 8.6-6.9 12.8-10.4 4.4 8.4 8.6 16.7 12.9 24.9.7 1.3 1.5 2.5 2.3 3.7-1 .2-1.4.4-1.8.4-6.7 0-13.4-.1-20.2 0-4.3.1-4.9-1.2-3.7-5.1 4.1-13.1 8.1-26.1 12-39.2 1.1-3.7.5-5-3.7-5-13.5-.1-26.9-.1-40.4 0-4.1 0-4.9 1-3.9 4.8 4 15.8 8.1 31.6 12.3 47.4.6 2.2 1.3 4.2 2.1 6.4-4.5 3.6-8.7 7-12.9 10.4z" fill="#326DE6"/>
    <path d="M325.6 637.8c-2.2-10.2-2.2-10.2-16-21.9-4.6-3.9-4.5-3.9-1.8-8.3 9.3-15.1 18.3-30.3 27.7-46 6.9 13 6.9 13 20.2 16.8 3.3.9 3.7 1.1 1.8 4.5-3.9 7.2-7.8 14.3-11.9 21.3-6.6 11.3-13.2 22.5-20 33.6z" fill="#326DE6"/>
    <path d="M451.4 609.2c4.2-3.4 8.4-6.8 12.9-10.4-.8 2.2-1.5 4.2-2.1 6.4-4.2 15.8-8.3 31.6-12.3 47.4-1 3.8-.2 4.8 3.9 4.8h40.4c4.2 0 4.8-1.3 3.7-5-3.9-13.1-7.9-26.1-12-39.2-1.2-3.9.6-5.2 3.7-5.1 6.8.1 13.5 0 20.2 0 .4 0 .8.2 1.8.4-.8-1.2-1.6-2.4-2.3-3.7-4.3-8.2-8.5-16.5-12.9-24.9-4.2 3.5-8.4 6.9-12.8 10.4.8 2.2 1.5 4.2 2.1 6.4 4.2 15.8 8.3 31.6 12.3 47.4 1 3.8.2 4.8-3.9 4.8h-40.4c-4.2 0-4.8-1.3-3.7-5 3.9-13.1 7.9-26.1 12-39.2 1.2-3.9-.6-5.2-3.7-5.1-6.8.1-13.5 0-20.2 0-.4 0-.8-.2-1.8-.4.8 1.2 1.6 2.4 2.3 3.7 4.3 8.2 8.5 16.5 12.9 24.9z" fill="#326DE6"/>
    <path d="M325.6 116.2c-6.8 11.1-13.4 22.3-20 33.6-4.1 7-8 14.1-11.9 21.3-1.9 3.4-1.5 3.6 1.8 4.5 13.3 3.8 13.3 3.8 20.2 16.8 9.4-15.7 18.4-30.9 27.7-46 2.7-4.4 2.8-4.4-1.8-8.3-13.8-11.7-13.8-11.7-16-21.9z" fill="#326DE6"/>
    <path d="M398.2 144.8c2.3 4.5 4.6 9.2 7 13.7 5.4 10.5 10.9 21 16.2 31.6 1.7 3.3 1.7 3.3 4.6.9 8.3-6.8 16.7-13.5 25.2-20.1 3.3-2.6 3.5-2.6 2.2 1.8-4.5 15.3-8.9 30.6-13.3 45.9-1.1 3.9-.6 4.6 3.5 4.6 6.5-.1 13-.1 19.6 0 3.6.1 4.3-.7 3.4-4.2-5.4-19.2-10.9-38.3-16.5-57.4-.8-2.7-.9-5.5-1.4-8.2 7.8-6.3 15.5-12.7 23.3-18.9 1.6-1.3 1.9-2.4 1.2-4.3-5.2-13.9-10.2-27.9-15.3-41.9-1.3-3.7-2.7-4.1-6.1-2.5-17.5 8.3-35 16.8-52.4 25.3-3.8 1.8-4.3 3.3-2.6 7.1 4.2 9.4 8.4 18.8 12.5 28.3.7 1.4.8 2.9 1.2 4.4-1 .2-1.4.4-1.8.4-6.7 0-13.4-.1-20.2 0-4.3.1-4.9-1.2-3.7-5.1 4.1-13.1 8.1-26.1 12-39.2 1.1-3.7.5-5-3.7-5-13.5-.1-26.9-.1-40.4 0-4.1 0-4.9 1-3.9 4.8 4 15.8 8.1 31.6 12.3 47.4.6 2.2 1.3 4.2 2.1 6.4-4.4 3.5-8.6 7-12.8 10.4z" fill="#326DE6"/>
    <path d="M451.4 144.8c-4.2 3.4-8.4 6.8-12.9 10.4.8-2.2 1.5-4.2 2.1-6.4 4.2-15.8 8.3-31.6 12.3-47.4 1-3.8.2-4.8-3.9-4.8h-40.4c-4.2 0-4.8 1.3-3.7 5 3.9 13.1 7.9 26.1 12 39.2 1.2 3.9-.6 5.2-3.7 5.1-6.8-.1-13.5 0-20.2 0-.4 0-.8-.2-1.8-.4.8 1.2 1.6 2.4 2.3 3.7 4.3 8.2 8.5 16.5 12.9 24.9 4.2-3.5 8.4-6.9 12.8-10.4-.8-2.2-1.5-4.2-2.1-6.4-4.2-15.8-8.3-31.6-12.3-47.4-1-3.8-.2-4.8 3.9-4.8h40.4c4.2 0 4.8 1.3 3.7 5-3.9 13.1-7.9 26.1-12 39.2-1.2 3.9.6 5.2 3.7 5.1 6.8-.1 13.5 0 20.2 0 .4 0 .8.2 1.8.4-.8-1.2-1.6-2.4-2.3-3.7-4.3-8.2-8.5-16.5-12.9-24.9z" fill="#326DE6"/>
    <path d="M325.6 116.2c2.2 10.2 2.2 10.2 16 21.9 4.6 3.9 4.5 3.9 1.8 8.3-9.3 15.1-18.3 30.3-27.7 46-6.9-13-6.9-13-20.2-16.8-3.3-.9-3.7-1.1-1.8-4.5 3.9-7.2 7.8-14.3 11.9-21.3 6.6-11.3 13.2-22.5 20-33.6z" fill="#326DE6"/>
    <path d="M223.7 269.4c-1.5-9-2.7-18-3.9-27-.7-5.1-1.2-10.2-1.8-15.3-.3-2.3-.3-2.3-2.3-1.6-9.8 3.5-19.7 6.8-29.6 10.1-2.4.8-2.4.8-1.3 3.2 4.5 9.7 9 19.4 13.6 29 .9 1.9 1.5 4 2.4 6-8.4 2.7-16.7 5.3-25.1 7.8-2.2.6-2.5 1.4-1.6 3.6 4.8 11.2 9.5 22.5 14.3 33.6 1.2 2.8 2.6 3.2 5.3 2 13.1-5.8 26.3-11.7 39.5-17.7 3.2-1.5 3.6-2.8 2.2-6-4.1-9.5-8.1-19.1-12.1-28.7-.4-1-.7-2.2-1-3.3 6.2-1.9 12.3-3.9 18.5-5.9-2.2 9.4-4.3 18.6-6.5 27.8-3.8 16.2-7.7 32.3-11.5 48.4-.8 3.4.2 4.6 3.9 4.5 13-.1 25.9 0 38.9 0 4.4 0 5.1-1.2 4.1-5.2-3.9-16.2-7.8-32.3-11.8-48.4-.8-3.1-1.7-6.1-2.7-9.3 6.1-2 12.2-4.1 18.4-6.1 1 8.4 1.9 16.7 2.9 25 .5 4.1 1.2 8.1 1.8 12.2.2 1.6.5 1.7 1.8 1 9.8-5 19.6-10.1 29.5-15 2.1-1 2.3-1.8 1.3-3.7-4.3-8.1-8.6-16.3-12.9-24.4-1-1.9-1.6-4-2.5-6 8.4-2.7 16.7-5.4 25.1-8.1 2.2-.7 2.5-1.5 1.6-3.7-4.8-11.2-9.5-22.5-14.3-33.6-1.2-2.8-2.6-3.2-5.3-2-13.1 5.8-26.3 11.7-39.5 17.7-3.2 1.5-3.6 2.8-2.2 6 4.1 9.5 8.1 19.1 12.1 28.7.4 1 .7 2.2 1 3.3-6.3 2-12.5 4-18.8 6.1 2.2-9.4 4.3-18.6 6.5-27.8 3.8-16.2 7.7-32.3 11.5-48.4.8-3.4-.2-4.6-3.9-4.5-13 .1-25.9 0-38.9 0-4.4 0-5.1 1.2-4.1 5.2 3.9 16.2 7.8 32.3 11.8 48.4.8 3.1 1.7 6.1 2.7 9.3-6.2 2-12.3 4-18.5 6z" fill="#326DE6"/>
    <path d="M223.7 483.6c6.2-2 12.3-4 18.5-6-1 3.2-1.9 6.2-2.7 9.3-4 16.1-7.9 32.2-11.8 48.4-1 4-.3 5.2 4.1 5.2h38.9c3.7.1 4.7-1.1 3.9-4.5-3.8-16.1-7.7-32.2-11.5-48.4-2.2-9.2-4.3-18.4-6.5-27.8 6.3-2.1 12.5-4.1 18.8-6.1-.3 1.1-.6 2.3-1 3.3-4 9.6-8 19.2-12.1 28.7-1.4 3.2-1 4.5 2.2 6 13.2 5.9 26.4 11.8 39.5 17.7 2.7 1.2 4.1.8 5.3-2 4.8-11.1 9.5-22.4 14.3-33.6.9-2.2.6-3-1.6-3.7-8.4-2.7-16.7-5.4-25.1-8.1.9-2 1.5-4.1 2.5-6 4.3-8.1 8.6-16.3 12.9-24.4 1-1.9.8-2.7-1.3-3.7-9.9-4.9-19.7-10-29.5-15-1.3-.7-1.6-.6-1.8 1-.6 4.1-1.3 8.1-1.8 12.2-1 8.3-1.9 16.6-2.9 25-6.2-2-12.3-4.1-18.4-6.1 1 3.2 1.9 6.2 2.7 9.3 4 16.1 7.9 32.2 11.8 48.4 1 4 .3 5.2-4.1 5.2h-38.9c-3.7.1-4.7-1.1-3.9-4.5 3.8-16.1 7.7-32.2 11.5-48.4 2.2-9.2 4.3-18.4 6.5-27.8-6.2 2-12.3 4-18.5 6 .3 1.1.6 2.3 1 3.3 4 9.6 8 19.2 12.1 28.7 1.4 3.2 1 4.5-2.2 6-13.2-5.9-26.4-11.8-39.5-17.7-2.7-1.2-4.1-.8-5.3 2-4.8 11.1-9.5 22.4-14.3 33.6-.9 2.2-.6 3 1.6 3.7 8.4 2.7 16.7 5.4 25.1 8.1-.9-2-1.5-4.1-2.5-6C87 346.1 82.7 337.9 78.4 329.8c-1-1.9-.8-2.7 1.3-3.7 9.9-4.9 19.7-10 29.5-15 1.3-.7 1.6-.6 1.8 1 .6 4.1 1.3 8.1 1.8 12.2 1 8.3 1.9 16.6 2.9 25 6.2 2 12.3 4.1 18.4 6.1-1-3.2-1.9-6.2-2.7-9.3-4-16.1-7.9-32.2-11.8-48.4-1-4-.3-5.2 4.1-5.2h38.9c3.7-.1 4.7 1.1 3.9 4.5-3.8 16.1-7.7 32.2-11.5 48.4-2.2 9.2-4.3 18.4-6.5 27.8z" fill="#326DE6"/>
    <path d="M553.3 269.4c1.5-9 2.7-18 3.9-27 .7-5.1 1.2-10.2 1.8-15.3.3-2.3.3-2.3 2.3-1.6 9.8 3.5 19.7 6.8 29.6 10.1 2.4.8 2.4.8 1.3 3.2-4.5 9.7-9 19.4-13.6 29-.9 1.9-1.5 4-2.4 6 8.4 2.7 16.7 5.3 25.1 7.8 2.2.6 2.5 1.4 1.6 3.6-4.8 11.2-9.5 22.5-14.3 33.6-1.2 2.8-2.6 3.2-5.3 2-13.1-5.8-26.3-11.7-39.5-17.7-3.2-1.5-3.6-2.8-2.2-6 4.1-9.5 8.1-19.1 12.1-28.7.4-1 .7-2.2 1-3.3-6.2-1.9-12.3-3.9-18.5-5.9 2.2 9.4 4.3 18.6 6.5 27.8 3.8 16.2 7.7 32.3 11.5 48.4.8 3.4-.2 4.6-3.9 4.5-13-.1-25.9 0-38.9 0-4.4 0-5.1-1.2-4.1-5.2 3.9-16.2 7.8-32.3 11.8-48.4.8-3.1 1.7-6.1 2.7-9.3-6.1-2-12.2-4.1-18.4-6.1-1 8.4-1.9 16.7-2.9 25-.5 4.1-1.2 8.1-1.8 12.2-.2 1.6-.5 1.7-1.8 1-9.8-5-19.6-10.1-29.5-15-2.1-1-2.3-1.8-1.3-3.7 4.3-8.1 8.6-16.3 12.9-24.4 1-1.9 1.6-4 2.5-6-8.4-2.7-16.7-5.4-25.1-8.1-2.2-.7-2.5-1.5-1.6-3.7 4.8-11.2 9.5-22.5 14.3-33.6 1.2-2.8 2.6-3.2 5.3-2 13.1 5.8 26.3 11.7 39.5 17.7 3.2 1.5 3.6 2.8 2.2 6-4.1 9.5-8.1 19.1-12.1 28.7-.4 1-.7 2.2-1 3.3 6.3 2 12.5 4 18.8 6.1-2.2-9.4-4.3-18.6-6.5-27.8-3.8-16.2-7.7-32.3-11.5-48.4-.8-3.4.2-4.6 3.9-4.5 13 .1 25.9 0 38.9 0 4.4 0 5.1 1.2 4.1 5.2-3.9 16.2-7.8 32.3-11.8 48.4-.8 3.1-1.7 6.1-2.7 9.3 6.2 2 12.3 4 18.5 6z" fill="#326DE6"/>
    <path d="M553.3 483.6c-6.2-2-12.3-4-18.5-6 1 3.2 1.9 6.2 2.7 9.3 4 16.1 7.9 32.2 11.8 48.4 1 4 .3 5.2-4.1 5.2h-38.9c-3.7.1-4.7-1.1-3.9-4.5 3.8-16.1 7.7-32.2 11.5-48.4 2.2-9.2 4.3-18.4 6.5-27.8-6.3 2-12.5 4-18.8 6.1.3-1.1.6-2.3 1-3.3 4-9.6 8-19.2 12.1-28.7 1.4-3.2 1-4.5-2.2-6-13.2 5.9-26.4 11.8-39.5 17.7-2.7 1.2-4.1.8-5.3-2-4.8-11.1-9.5-22.4-14.3-33.6-.9-2.2-.6-3 1.6-3.7 8.4-2.7 16.7-5.4 25.1-8.1-.9 2-1.5 4.1-2.5 6-4.3 8.1-8.6 16.3-12.9 24.4-1 1.9-.8 2.7 1.3 3.7 9.9 4.9 19.7 10 29.5 15 1.3.7 1.6.6 1.8-1 .6-4.1 1.3-8.1 1.8-12.2 1-8.3 1.9-16.6 2.9-25 6.2 2 12.3 4.1 18.4 6.1-1-3.2-1.9-6.2-2.7-9.3-4-16.1-7.9-32.2-11.8-48.4-1-4-.3-5.2 4.1-5.2h38.9c3.7-.1 4.7 1.1 3.9 4.5-3.8 16.1-7.7 32.2-11.5 48.4-2.2 9.2-4.3 18.4-6.5 27.8 6.2-2 12.3-4 18.5-6-.3-1.1-.6-2.3-1-3.3-4-9.6-8-19.2-12.1-28.7-1.4-3.2-1-4.5 2.2-6 13.2-5.9 26.4-11.8 39.5-17.7 2.7-1.2 4.1-.8 5.3 2 4.8 11.1 9.5 22.4 14.3 33.6.9 2.2.6 3-1.6 3.7-8.4 2.7-16.7 5.4-25.1 8.1.9-2 1.5-4.1 2.5-6 4.3-8.1 8.6-16.3 12.9-24.4 1-1.9.8-2.7-1.3-3.7-9.9-4.9-19.7-10-29.5-15-1.3-.7-1.6-.6-1.8 1-.6 4.1-1.3 8.1-1.8 12.2-1 8.3-1.9 16.6-2.9 25z" fill="#326DE6"/>
    <path d="M325.6 377c-6.8 11.1-13.4 22.3-20 33.6-4.1 7-8 14.1-11.9 21.3-1.9 3.4-1.5 3.6 1.8 4.5 13.3 3.8 13.3 3.8 20.2 16.8 9.4-15.7 18.4-30.9 27.7-46 2.7-4.4 2.8-4.4-1.8-8.3-13.8-11.7-13.8-11.7-16-21.9z" fill="#326DE6"/>
    <path d="M398.2 348.4c-2.3 4.5-4.6 9.2-7 13.7-5.4 10.5-10.9 21-16.2 31.6-1.7 3.3-1.7 3.3-4.6.9-8.3-6.8-16.7-13.5-25.2-20.1-3.3-2.6-3.5-2.6-2.2 1.8 4.5 15.3 8.9 30.6 13.3 45.9 1.1 3.9.6 4.6-3.5 4.6-6.5-.1-13-.1-19.6 0-3.6.1-4.3-.7-3.4-4.2-5.4-19.2-10.9-38.3-16.5-57.4-.8-2.7-.9-5.5-1.4-8.2 7.8-6.3 15.5-12.7 23.3-18.9 1.6-1.3 1.9-2.4 1.2-4.3-5.2-13.9-10.2-27.9-15.3-41.9-1.3-3.7-2.7-4.1-6.1-2.5-17.5 8.3-35 16.8-52.4 25.3-3.8 1.8-4.3 3.3-2.6 7.1 4.2 9.4 8.4 18.8 12.5 28.3.7 1.4.8 2.9 1.2 4.4-1 .2-1.4.4-1.8.4-6.7 0-13.4-.1-20.2 0-4.3.1-4.9-1.2-3.7-5.1 4.1-13.1 8.1-26.1 12-39.2 1.1-3.7.5-5-3.7-5-13.5-.1-26.9-.1-40.4 0-4.1 0-4.9 1-3.9 4.8 4 15.8 8.1 31.6 12.3 47.4.6 2.2 1.3 4.2 2.1 6.4-4.4 3.5-8.6 7-12.8 10.4 4.4-8.4 8.6-16.7 12.9-24.9.7-1.3 1.5-2.5 2.3-3.7-1 .2-1.4.4-1.8.4-6.7 0-13.4-.1-20.2 0-4.3.1-4.9-1.2-3.7-5.1 4.1-13.1 8.1-26.1 12-39.2 1.1-3.7.5-5-3.7-5-13.5-.1-26.9-.1-40.4 0-4.1 0-4.9 1-3.9 4.8 4 15.8 8.1 31.6 12.3 47.4.6 2.2 1.3 4.2 2.1 6.4 4.2-3.4 8.4-6.9 12.8-10.4-2.2-4.5-4.6-9.2-7-13.7-5.4-10.5-10.9-21-16.2-31.6-1.7-3.3-1.7-3.3-4.6-.9-8.3 6.8-16.7 13.5-25.2 20.1-3.3 2.6-3.5 2.6-2.2-1.8 4.5-15.3 8.9-30.6 13.3-45.9 1.1-3.9.6-4.6-3.5-4.6-6.5.1-13 .1-19.6 0-3.6-.1-4.3.7-3.4 4.2 5.4 19.2 10.9 38.3 16.5 57.4.8 2.7.9 5.5 1.4 8.2-7.8 6.3-15.5 12.7-23.3 18.9-1.6 1.3-1.9 2.4-1.2 4.3 5.2 13.9 10.2 27.9 15.3 41.9 1.3 3.7 2.7 4.1 6.1 2.5 17.5-8.3 35-16.8 52.4-25.3 3.8-1.8 4.3-3.3 2.6-7.1-4.2-9.4-8.4-18.8-12.5-28.3-.7-1.4-.8-2.9-1.2-4.4 1-.2 1.4-.4 1.8-.4 6.7 0 13.4.1 20.2 0 4.3-.1 4.9 1.2 3.7 5.1-4.1 13.1-8.1 26.1-12 39.2-1.1 3.7-.5 5 3.7 5 13.5.1 26.9.1 40.4 0 4.1 0 4.9-1 3.9-4.8-4-15.8-8.1-31.6-12.3-47.4-.6-2.2-1.3-4.2-2.1-6.4 4.5-3.6 8.7-7 12.9-10.4-4.4 8.4-8.6 16.7-12.9 24.9-.7 1.3-1.5 2.5-2.3 3.7 1-.2 1.4-.4 1.8-.4 6.7 0 13.4.1 20.2 0 4.3-.1 4.9 1.2 3.7 5.1-4.1 13.1-8.1 26.1-12 39.2-1.1 3.7-.5 5 3.7 5 13.5.1 26.9.1 40.4 0 4.1 0 4.9-1 3.9-4.8-4-15.8-8.1-31.6-12.3-47.4-.6-2.2-1.3-4.2-2.1-6.4 4.2 3.5 8.4 6.9 12.8 10.4z" fill="#326DE6"/>
    <path d="M325.6 377c-2.2-10.2-2.2-10.2-16-21.9-4.6-3.9-4.5-3.9-1.8-8.3 9.3-15.1 18.3-30.3 27.7-46 6.9 13 6.9 13 20.2 16.8 3.3.9 3.7 1.1 1.8 4.5-3.9 7.2-7.8 14.3-11.9 21.3-6.6 11.3-13.2 22.5-20 33.6z" fill="#326DE6"/>
  </g>
</svg>